:SAMPLES-PER-SECOND 30
:FULLY-SPECIFIED
:DEGREES
208
root  94.1009 37.8159 -28.0889 19.2846 -84.6867 17.8401
RightUpLeg  -61.487 -14.0567 9.18735
RightLeg  29.592 -7.6271 -4.89986
RightFoot  -6.65391 0.00771721 -1.31264
RightToes  0.000482159 0.542163 -0.142577
Spine  67.3416 -3.44072 8.1509
Spine1  6.97534 3.75724 -5.16992
HEad  -45.6096 -11.1556 5.36634
LeftShoulder1  12.1528 -30.4791 -29.3665
LeftArm  -48.9803 -72.9413 -4.52868
LeftForeArm  18.9763 -17.7756 -3.36671
LeftHand  -0.25398 0.0180481 5.50724
RightShoulder  6.79095 14.9689 30.7803
RightArm  -67.012 59.3648 -34.6561
RightForeArm  -16.284 8.99578 7.04923
RightHand  -0.185341 11.6859 -1.80498
LeftUpLeg  -59.8764 14.7806 -22.9162
LeftLeg  24.3553 -3.99219 -1.63836
LeftFoot  -3.53697 -0.475018 7.26686
LeftToes  1.06247e-005 4.65854e-005 -8.18501e-006
209
root  94.1636 37.6131 -28.142 22.1937 -84.6178 15.8042
RightUpLeg  -63.1311 -13.5982 9.52349
RightLeg  30.9178 -7.69143 -5.18854
RightFoot  -7.08318 0.0245909 -1.94516
RightToes  0.000482159 0.542163 -0.142577
Spine  69.0088 -2.95525 7.44845
Spine1  5.2965 3.41564 -3.7276
HEad  -45.0499 -10.4891 4.72799
LeftShoulder1  12.6855 -29.5796 -31.9915
LeftArm  -54.5642 -74.2982 3.43661
LeftForeArm  17.5032 -16.6397 -3.56202
LeftHand  -0.25398 0.0180481 5.50724
RightShoulder  6.30781 14.9644 28.1157
RightArm  -69.1668 60.5341 -32.9236
RightForeArm  -15.1566 8.20876 6.22979
RightHand  -0.150172 11.4259 -1.57882
LeftUpLeg  -62.0061 14.5493 -23.1817
LeftLeg  26.2923 -3.85574 -1.73199
LeftFoot  -4.08156 -0.464856 7.70104
LeftToes  1.06247e-005 4.65854e-005 -8.18501e-006
210
root  94.1831 37.4608 -28.2082 24.0967 -84.3663 14.4687
RightUpLeg  -64.3371 -12.9264 9.3797
RightLeg  32.1669 -8.1525 -5.73564
RightFoot  -7.00386 0.0701239 -3.09933
RightToes  0.000482159 0.542163 -0.142577
Spine  69.9256 -2.8079 8.07327
Spine1  4.57481 4.10289 -3.87632
HEad  -44.5988 -11.9155 5.10528
LeftShoulder1  12.7884 -30.9047 -30.8169
LeftArm  -58.2224 -74.9383 5.82505
LeftForeArm  17.4023 -15.7806 -3.32349
LeftHand  -0.25398 0.0180481 5.50724
RightShoulder  6.38759 15.2109 27.6555
RightArm  -69.3627 58.787 -33.3958
RightForeArm  -16.0623 8.59656 5.83631
RightHand  -0.110205 11.1399 -1.31273
LeftUpLeg  -63.3382 14.119 -23.0161
LeftLeg  27.7409 -3.73975 -1.78976
LeftFoot  -4.46271 -0.432695 7.63403
LeftToes  1.06247e-005 4.65854e-005 -8.18501e-006
211
root  94.1715 37.347 -28.2629 25.6007 -84.0892 13.2499
RightUpLeg  -65.2223 -12.6735 9.40868
RightLeg  33.4425 -8.11601 -5.97989
RightFoot  -7.00742 0.0883657 -3.58502
RightToes  0.000482159 0.542163 -0.142577
Spine  70.0627 -2.36752 9.15994
Spine1  5.74041 5.40615 -3.72009
HEad  -44.7814 -14.5346 5.62782
LeftShoulder1  12.5619 -33.1734 -27.5866
LeftArm  -63.3001 -75.5148 8.01256
LeftForeArm  17.8533 -15.0049 -2.61877
LeftHand  -0.25398 0.0180481 5.50724
RightShoulder  8.42397 18.2169 32.3247
RightArm  -67.074 52.3128 -43.6964
RightForeArm  -22.0727 9.11099 7.3834
RightHand  -0.0758293 10.9169 -1.078
LeftUpLeg  -64.0787 13.5387 -22.4673
LeftLeg  28.7725 -3.39082 -1.67032
LeftFoot  -4.85917 -0.388859 7.37481
LeftToes  1.06247e-005 4.65854e-005 -8.18501e-006
212
root  94.15 37.257 -28.3078 26.7763 -83.8262 12.3317
RightUpLeg  -66.0029 -12.9463 9.92053
RightLeg  34.4561 -7.72676 -5.92014
RightFoot  -7.29614 0.0745525 -3.50634
RightToes  0.000482159 0.542163 -0.142577
Spine  70.3485 -3.33978 7.88102
Spine1  8.10044 3.51852 -3.93339
HEad  -46.1338 -10.9614 5.95319
LeftShoulder1  10.3249 -29.5977 -24.6911
LeftArm  -78.9545 -75.9758 25.2037
LeftForeArm  15.413 -14.0564 -2.45378
LeftHand  -0.25398 0.0180481 5.50724
RightShoulder  4.33163 14.5333 17.7275
RightArm  -72.3153 57.77 -26.7101
RightForeArm  -16.7425 10.5635 3.78893
RightHand  -0.0796549 10.1311 -1.11613
LeftUpLeg  -64.7128 12.8995 -21.8924
LeftLeg  29.6333 -2.80747 -1.37977
LeftFoot  -5.11618 -0.365419 7.27804
LeftToes  1.06247e-005 4.65854e-005 -8.18501e-006
213
root  94.1287 37.19 -28.347 28.1401 -83.5925 11.349
RightUpLeg  -66.9546 -13.4686 10.9348
RightLeg  35.0932 -7.55081 -5.92629
RightFoot  -7.28742 0.0770773 -3.56669
RightToes  0.000482159 0.542163 -0.142577
Spine  71.372 -3.33273 8.35169
Spine1  4.86542 3.67047 -3.66184
HEad  -43.7749 -11.4443 5.79198
LeftShoulder1  12.5501 -30.8379 -30.1693
LeftArm  -71.0486 -75.4008 20.8178
LeftForeArm  16.2671 -14.0748 -3.3635
LeftHand  -0.25398 0.0180481 5.50724
RightShoulder  4.31882 13.2271 19.3358
RightArm  -70.5068 59.1334 -24.1888
RightForeArm  -13.8525 12.1139 4.21128
RightHand  -0.032258 9.14376 -0.760299
LeftUpLeg  -65.4066 12.2709 -21.3615
LeftLeg  30.3831 -2.26546 -1.08636
LeftFoot  -5.1477 -0.360851 7.23605
LeftToes  1.06247e-005 4.65854e-005 -8.18501e-006
214
root  94.1075 37.1431 -28.3876 29.4471 -83.4677 10.3237
RightUpLeg  -67.8136 -13.9784 12.154
RightLeg  35.4781 -7.76557 -6.16696
RightFoot  -7.06764 0.0934438 -3.78251
RightToes  0.000482159 0.542163 -0.142577
Spine  71.4585 -3.35698 8.40153
Spine1  4.88169 3.62198 -3.59005
HEad  -43.7555 -11.0767 5.9751
LeftShoulder1  12.5311 -30.8335 -30.0962
LeftArm  -71.3906 -75.3229 20.2966
LeftForeArm  16.8129 -14.3066 -3.12835
LeftHand  -0.25398 0.0180481 5.50724
RightShoulder  3.81371 11.8161 18.3695
RightArm  -72.1005 60.7634 -23.0218
RightForeArm  -11.28 12.8159 3.90547
RightHand  -0.0338875 8.27095 -0.774869
LeftUpLeg  -65.9216 11.7921 -20.8132
LeftLeg  30.9763 -1.88029 -0.868228
LeftFoot  -5.16052 -0.355224 7.12956
LeftToes  1.06247e-005 4.65854e-005 -8.18501e-006
215
root  94.088 37.1217 -28.4378 30.3177 -83.505 9.33861
RightUpLeg  -67.9139 -14.0068 12.4444
RightLeg  35.878 -7.56504 -6.10212
RightFoot  -6.95276 0.110302 -4.10247
RightToes  0.000482159 0.542163 -0.142577
Spine  71.9765 -3.20274 8.49314
Spine1  4.25688 3.87001 -3.46541
HEad  -42.6124 -11.778 5.55005
LeftShoulder1  12.893 -31.0258 -30.9438
LeftArm  -69.8094 -75.5529 18.4428
LeftForeArm  17.1864 -13.6937 -3.12591
LeftHand  -0.25398 0.0180481 5.50724
RightShoulder  3.57884 11.2086 17.7589
RightArm  -72.2797 61.4005 -22.7825
RightForeArm  -9.47356 12.0736 3.68735
RightHand  -0.158343 7.72749 -1.86798
LeftUpLeg  -66.0073 11.6599 -20.3139
LeftLeg  31.3875 -1.57759 -0.686879
LeftFoot  -5.24749 -0.353322 7.10866
LeftToes  1.06247e-005 4.65854e-005 -8.18501e-006
